<?xml version="1.0" encoding="UTF-8" standalone="no"?>
<svg
   xmlns:dc="http://purl.org/dc/elements/1.1/"
   xmlns:cc="http://creativecommons.org/ns#"
   xmlns:rdf="http://www.w3.org/1999/02/22-rdf-syntax-ns#"
   xmlns:svg="http://www.w3.org/2000/svg"
   xmlns="http://www.w3.org/2000/svg"
   xmlns:sodipodi="http://sodipodi.sourceforge.net/DTD/sodipodi-0.dtd"
   xmlns:inkscape="http://www.inkscape.org/namespaces/inkscape"
   inkscape:version="1.0beta2 (2b71d25, 2019-12-03)"
   sodipodi:docname="smaerttuning-logo.svg"
   id="svg8"
   version="1.1"
   viewBox="0 0 120.01947 58.485241"
   height="58.485241mm"
   width="120.01947mm">
  <defs
     id="defs2" />
  <sodipodi:namedview
     fit-margin-bottom="0"
     fit-margin-right="0"
     fit-margin-left="0"
     fit-margin-top="0"
     inkscape:window-maximized="1"
     inkscape:window-y="0"
     inkscape:window-x="0"
     inkscape:window-height="1028"
     inkscape:window-width="1680"
     inkscape:snap-global="false"
     showgrid="false"
     inkscape:document-rotation="0"
     inkscape:current-layer="layer1"
     inkscape:document-units="mm"
     inkscape:cy="272.02747"
     inkscape:cx="90.495176"
     inkscape:zoom="1.0895111"
     inkscape:pageshadow="2"
     inkscape:pageopacity="0.0"
     borderopacity="1.0"
     bordercolor="#666666"
     pagecolor="#ffffff"
     id="base" />
  <metadata
     id="metadata5">
    <rdf:RDF>
      <cc:Work
         rdf:about="">
        <dc:format>image/svg+xml</dc:format>
        <dc:type
           rdf:resource="http://purl.org/dc/dcmitype/StillImage" />
        <dc:title></dc:title>
      </cc:Work>
    </rdf:RDF>
  </metadata>
  <g
     transform="translate(-89.949048,-95.623239)"
     id="layer1"
     inkscape:groupmode="layer"
     inkscape:label="Layer 1">
    <path
       d="m 55.216781,87.565862 q 0,-1.032924 -0.541866,-1.540921 -0.541866,-0.507997 -1.574797,-0.507997 -0.711198,0 -1.320797,0.253997 -0.609599,0.254 -1.032932,0.677337 l -0.643465,-0.761994 q 0.491066,-0.49107 1.286931,-0.812797 0.812798,-0.321727 1.828796,-0.321727 0.643466,0 1.202265,0.186257 0.558798,0.16934 0.982131,0.524937 0.423332,0.35559 0.660399,0.897457 0.237066,0.541867 0.237066,1.269991 v 3.471302 q 0,0.457197 0.03387,0.948264 0.03387,0.491057 0.1016,0.829724 h -1.032931 q -0.0508,-0.287867 -0.08467,-0.626524 -0.03387,-0.33867 -0.03387,-0.660397 h -0.03387 q -0.541865,0.795854 -1.236131,1.151454 -0.677332,0.338667 -1.64253,0.338667 -0.457199,0 -0.948265,-0.13547 -0.474132,-0.11853 -0.880531,-0.406397 -0.389466,-0.287857 -0.660399,-0.745057 -0.253999,-0.457197 -0.253999,-1.117594 0,-0.914394 0.457199,-1.439321 0.474132,-0.541857 1.253064,-0.795854 0.778932,-0.27094 1.777996,-0.33867 1.015998,-0.0847 2.09973,-0.0847 z m -0.338666,1.151464 q -0.711199,0 -1.439331,0.0677 -0.711198,0.0508 -1.303864,0.237067 -0.575732,0.16933 -0.948265,0.507997 -0.372532,0.33866 -0.372532,0.897457 0,0.423327 0.152399,0.711194 0.169333,0.28787 0.440266,0.474127 0.270933,0.16934 0.592666,0.254 0.338666,0.0677 0.677332,0.0677 0.609598,0 1.083731,-0.2032 0.474132,-0.220137 0.795865,-0.575737 0.321733,-0.372527 0.491066,-0.846654 0.169333,-0.474127 0.169333,-0.999064 v -0.592657 z"
       style="font-style:normal;font-variant:normal;font-weight:normal;font-stretch:normal;font-size:16.9333px;line-height:1.25;font-family:'Avenir Next';-inkscape-font-specification:'Avenir Next Normal';font-variant-ligatures:normal;font-variant-caps:normal;font-variant-numeric:normal;font-variant-east-asian:normal;stroke-width:0.264583"
       id="path929"
       inkscape:connector-curvature="0" />
    <text
       id="text853"
       y="137.58333"
       x="40.065475"
       style="font-size:3.88056px;line-height:1.25;font-family:sans-serif;stroke-width:0.264583"
       xml:space="preserve"><tspan
         style="stroke-width:0.264583"
         y="137.58333"
         x="40.065475"
         id="tspan851"
         sodipodi:role="line" /></text>
    <text
       id="text861"
       y="207.8869"
       x="23.434525"
       style="font-size:3.88056px;line-height:1.25;font-family:sans-serif;stroke-width:0.264583"
       xml:space="preserve"><tspan
         style="font-style:normal;font-variant:normal;font-weight:normal;font-stretch:normal;font-size:16.9333px;font-family:'Avenir Next';-inkscape-font-specification:'Avenir Next Normal';font-variant-ligatures:normal;font-variant-caps:normal;font-variant-numeric:normal;font-variant-east-asian:normal;stroke-width:0.264583"
         y="207.8869"
         x="23.434525"
         id="tspan859"
         sodipodi:role="line">SmartTuning</tspan></text>
    <g
       transform="translate(12.508662,20.284316)"
       id="g886">
      <path
         id="rect865"
         style="fill:#000000;stroke:#000000;stroke-width:0.264999"
         d="m 104.56614,46.545193 h 20.41071 v 8.069745 c -7.18775,-2.30509 -14.04414,-2.622028 -20.41071,0 z"
         inkscape:connector-curvature="0"
         sodipodi:nodetypes="ccccc" />
      <path
         id="rect863"
         style="fill:#000000;stroke:#ffffff;stroke-width:0.265;stroke-miterlimit:4;stroke-dasharray:none"
         d="m 115.09273,40.537975 15.24662,5.294602 -15.96789,5.212021 -15.166467,-5.212023 z"
         inkscape:connector-curvature="0"
         sodipodi:nodetypes="ccccc" />
      <path
         style="fill:none;stroke:#000000;stroke-width:0.264583px;stroke-linecap:butt;stroke-linejoin:miter;stroke-opacity:1"
         d="m 128.75184,45.832577 v 3.712221"
         id="path878"
         inkscape:connector-curvature="0" />
      <path
         inkscape:connector-curvature="0"
         id="path880"
         d="M 128.75184,49.007579 V 52.7198"
         style="fill:none;stroke:#000000;stroke-width:2.665;stroke-linecap:round;stroke-linejoin:miter;stroke-miterlimit:4;stroke-dasharray:none;stroke-opacity:1" />
    </g>
    <g
       id="g1501">
      <g
         id="g1014">
        <path
           d="M 30.38202,138.33928 H 29.162822 V 127.43423 H 25.14963 v -1.08373 h 9.245582 v 1.08373 H 30.38202 Z"
           style="font-style:normal;font-variant:normal;font-weight:normal;font-stretch:normal;font-size:16.9333px;line-height:1.25;font-family:'Avenir Next';-inkscape-font-specification:'Avenir Next Normal';font-variant-ligatures:normal;font-variant-caps:normal;font-variant-numeric:normal;font-variant-east-asian:normal;stroke-width:0.264583"
           id="path936"
           inkscape:connector-curvature="0" />
        <path
           d="m 40.363671,138.33928 q -0.03387,-0.32173 -0.0508,-0.7112 -0.01693,-0.38947 -0.01693,-0.64346 h -0.03387 q -0.338666,0.69426 -1.100665,1.13453 -0.761998,0.42333 -1.608663,0.42333 -1.507064,0 -2.269062,-0.89747 -0.745066,-0.89746 -0.745066,-2.37066 v -4.85986 h 1.151465 v 4.38573 q 0,0.62653 0.1016,1.13453 0.101599,0.508 0.338666,0.88053 0.253999,0.3556 0.660398,0.5588 0.423333,0.2032 1.049865,0.2032 0.457199,0 0.880532,-0.18627 0.440265,-0.18626 0.778931,-0.55879 0.338666,-0.38947 0.541866,-0.9652 0.2032,-0.59267 0.2032,-1.38853 v -4.064 h 1.151464 v 6.18066 q 0,0.32173 0.01693,0.82973 0.01693,0.508 0.0508,0.9144 z"
           style="font-style:normal;font-variant:normal;font-weight:normal;font-stretch:normal;font-size:16.9333px;line-height:1.25;font-family:'Avenir Next';-inkscape-font-specification:'Avenir Next Normal';font-variant-ligatures:normal;font-variant-caps:normal;font-variant-numeric:normal;font-variant-east-asian:normal;stroke-width:0.264583"
           id="path938"
           inkscape:connector-curvature="0" />
        <path
           d="m 45.461916,130.41449 q 0.03387,0.32174 0.0508,0.7112 0.01693,0.38947 0.01693,0.64347 h 0.03387 q 0.338666,-0.69427 1.100665,-1.1176 0.761998,-0.44026 1.608663,-0.44026 1.507064,0 2.252129,0.89746 0.761999,0.89746 0.761999,2.37066 v 4.85986 h -1.151465 v -4.38573 q 0,-0.62653 -0.101599,-1.13453 -0.1016,-0.508 -0.3556,-0.86359 -0.237066,-0.37254 -0.660398,-0.57574 -0.4064,-0.2032 -1.032932,-0.2032 -0.457199,0 -0.897465,0.18627 -0.423332,0.18627 -0.761998,0.57573 -0.338666,0.37253 -0.541866,0.9652 -0.203199,0.57573 -0.203199,1.3716 v 4.06399 h -1.151465 v -6.18066 q 0,-0.32173 -0.01693,-0.82973 -0.01693,-0.508 -0.0508,-0.9144 z"
           style="font-style:normal;font-variant:normal;font-weight:normal;font-stretch:normal;font-size:16.9333px;line-height:1.25;font-family:'Avenir Next';-inkscape-font-specification:'Avenir Next Normal';font-variant-ligatures:normal;font-variant-caps:normal;font-variant-numeric:normal;font-variant-east-asian:normal;stroke-width:0.264583"
           id="path940"
           inkscape:connector-curvature="0" />
        <path
           d="m 55.42002,138.33928 h -1.151465 v -7.92479 h 1.151465 z m 0.237066,-10.97278 q 0,0.3556 -0.254,0.59267 -0.253999,0.22013 -0.558799,0.22013 -0.304799,0 -0.558799,-0.22013 -0.253999,-0.23707 -0.253999,-0.59267 0,-0.3556 0.253999,-0.57573 0.254,-0.23707 0.558799,-0.23707 0.3048,0 0.558799,0.23707 0.254,0.22013 0.254,0.57573 z"
           style="font-style:normal;font-variant:normal;font-weight:normal;font-stretch:normal;font-size:16.9333px;line-height:1.25;font-family:'Avenir Next';-inkscape-font-specification:'Avenir Next Normal';font-variant-ligatures:normal;font-variant-caps:normal;font-variant-numeric:normal;font-variant-east-asian:normal;stroke-width:0.264583"
           id="path942"
           inkscape:connector-curvature="0" />
        <path
           d="m 59.517877,130.41449 q 0.03387,0.32174 0.0508,0.7112 0.01693,0.38947 0.01693,0.64347 h 0.03387 q 0.338666,-0.69427 1.100665,-1.1176 0.761998,-0.44026 1.608663,-0.44026 1.507064,0 2.252129,0.89746 0.761998,0.89746 0.761998,2.37066 v 4.85986 h -1.151464 v -4.38573 q 0,-0.62653 -0.1016,-1.13453 -0.1016,-0.508 -0.355599,-0.86359 -0.237066,-0.37254 -0.660399,-0.57574 -0.406399,-0.2032 -1.032931,-0.2032 -0.457199,0 -0.897465,0.18627 -0.423332,0.18627 -0.761998,0.57573 -0.338666,0.37253 -0.541866,0.9652 -0.2032,0.57573 -0.2032,1.3716 v 4.06399 h -1.151464 v -6.18066 q 0,-0.32173 -0.01693,-0.82973 -0.01693,-0.508 -0.0508,-0.9144 z"
           style="font-style:normal;font-variant:normal;font-weight:normal;font-stretch:normal;font-size:16.9333px;line-height:1.25;font-family:'Avenir Next';-inkscape-font-specification:'Avenir Next Normal';font-variant-ligatures:normal;font-variant-caps:normal;font-variant-numeric:normal;font-variant-east-asian:normal;stroke-width:0.264583"
           id="path944"
           inkscape:connector-curvature="0" />
        <path
           d="m 68.730918,139.93101 q 0.474132,0.6096 1.286931,1.03293 0.829731,0.42333 1.74413,0.42333 0.846665,0 1.43933,-0.254 0.592666,-0.23706 0.948265,-0.6604 0.372533,-0.42333 0.541866,-0.99906 0.169333,-0.5588 0.169333,-1.20226 v -1.49013 h -0.03387 q -0.457199,0.74506 -1.303864,1.15146 -0.829732,0.4064 -1.69333,0.4064 -0.931332,0 -1.69333,-0.3048 -0.745065,-0.3048 -1.286931,-0.82973 -0.524932,-0.54187 -0.829732,-1.28693 -0.287866,-0.74507 -0.287866,-1.60867 0,-0.84666 0.287866,-1.59173 0.3048,-0.74506 0.829732,-1.30386 0.541866,-0.5588 1.286931,-0.88053 0.761998,-0.32173 1.69333,-0.32173 0.863598,0 1.69333,0.40639 0.829732,0.4064 1.303864,1.1684 h 0.03387 v -1.3716 h 1.151464 v 7.85706 q 0,0.64346 -0.186266,1.37159 -0.169333,0.72814 -0.660399,1.33773 -0.474132,0.6096 -1.303864,1.016 -0.829732,0.4064 -2.150529,0.4064 -1.100665,0 -2.099729,-0.42333 -0.999065,-0.42333 -1.710264,-1.1684 z m 0.220133,-5.65572 q 0,0.62653 0.203199,1.18533 0.2032,0.5588 0.575733,0.98213 0.389466,0.42333 0.948264,0.67733 0.558799,0.23707 1.269998,0.23707 0.660399,0 1.219198,-0.22014 0.558798,-0.22013 0.965198,-0.62653 0.406399,-0.4064 0.626532,-0.9652 0.237066,-0.57573 0.237066,-1.26999 0,-0.62653 -0.237066,-1.18533 -0.220133,-0.5588 -0.626532,-0.98214 -0.4064,-0.42333 -0.965198,-0.67733 -0.558799,-0.254 -1.219198,-0.254 -0.711199,0 -1.269998,0.254 -0.558798,0.254 -0.948264,0.67733 -0.372533,0.42334 -0.575733,0.98214 -0.203199,0.5588 -0.203199,1.18533 z"
           style="font-style:normal;font-variant:normal;font-weight:normal;font-stretch:normal;font-size:16.9333px;line-height:1.25;font-family:'Avenir Next';-inkscape-font-specification:'Avenir Next Normal';font-variant-ligatures:normal;font-variant-caps:normal;font-variant-numeric:normal;font-variant-east-asian:normal;stroke-width:0.264583"
           id="path946"
           inkscape:connector-curvature="0" />
        <g
           style="stroke-width:0.770307"
           transform="matrix(1.2893861,0,0,1.3070399,-74.174786,-40.718899)"
           id="g905">
          <path
             sodipodi:nodetypes="ccccc"
             inkscape:connector-curvature="0"
             d="m 76.960775,126.48577 h 7.755174 v 2.9615 c -2.73103,-0.84594 -5.336157,-0.96225 -7.755174,0 z"
             style="fill:#000000;stroke:#000000;stroke-width:0.204131"
             id="path888" />
          <path
             sodipodi:nodetypes="ccccc"
             inkscape:connector-curvature="0"
             d="m 80.960417,124.2812 5.793047,1.94305 -6.067098,1.91275 -5.762592,-1.91275 z"
             style="fill:#000000;stroke:#ffffff;stroke-width:0.204131;stroke-miterlimit:4;stroke-dasharray:none"
             id="path890" />
          <path
             inkscape:connector-curvature="0"
             id="path892"
             d="m 86.15028,126.22425 v 1.36234"
             style="fill:none;stroke:#000000;stroke-width:0.20381px;stroke-linecap:butt;stroke-linejoin:miter;stroke-opacity:1" />
        </g>
      </g>
      <path
         inkscape:connector-curvature="0"
         id="path925"
         style="font-style:normal;font-variant:normal;font-weight:normal;font-stretch:normal;font-size:16.9333px;line-height:1.25;font-family:'Avenir Next';-inkscape-font-specification:'Avenir Next Normal';font-variant-ligatures:normal;font-variant-caps:normal;font-variant-numeric:normal;font-variant-east-asian:normal;stroke-width:0.264583"
         d="m 45.173605,115.98762 q -0.389465,-0.54186 -0.999064,-0.86359 -0.609599,-0.33867 -1.473197,-0.33867 -0.440266,0 -0.897465,0.13547 -0.457199,0.13546 -0.829732,0.42333 -0.372533,0.27093 -0.609599,0.69426 -0.220133,0.42333 -0.220133,0.99906 0,0.57574 0.220133,0.94827 0.220133,0.37253 0.575732,0.64347 0.372533,0.25399 0.829732,0.42333 0.474133,0.16933 0.982132,0.33866 0.626532,0.2032 1.253064,0.44027 0.643465,0.23707 1.151464,0.62653 0.507999,0.37253 0.829732,0.9652 0.321733,0.57573 0.321733,1.4732 0,0.89746 -0.3556,1.55786 -0.338666,0.64347 -0.897465,1.0668 -0.541865,0.42333 -1.253064,0.62653 -0.694265,0.2032 -1.405464,0.2032 -0.541865,0 -1.083731,-0.11853 -0.541866,-0.1016 -1.032931,-0.32174 -0.491066,-0.22013 -0.914398,-0.55879 -0.423333,-0.33867 -0.745066,-0.77894 l 1.049865,-0.77893 q 0.389466,0.64347 1.083731,1.08373 0.711199,0.42334 1.659464,0.42334 0.457199,0 0.931331,-0.13547 0.474132,-0.1524 0.846665,-0.44027 0.389466,-0.3048 0.626532,-0.72813 0.254,-0.44026 0.254,-1.016 0,-0.62653 -0.254,-1.03293 -0.237066,-0.42333 -0.643465,-0.69426 -0.406399,-0.28787 -0.931332,-0.47414 -0.524932,-0.18626 -1.100664,-0.37253 -0.592666,-0.18626 -1.168398,-0.42333 -0.575732,-0.23707 -1.032931,-0.6096 -0.457199,-0.38947 -0.745065,-0.94826 -0.270933,-0.5588 -0.270933,-1.3716 0,-0.8636 0.338666,-1.49013 0.355599,-0.62653 0.914398,-1.03293 0.558799,-0.4064 1.236131,-0.59267 0.677332,-0.18626 1.337731,-0.18626 1.219197,0 2.082795,0.44026 0.863599,0.42334 1.303865,1.016 z" />
      <path
         inkscape:connector-curvature="0"
         id="path927"
         style="font-style:normal;font-variant:normal;font-weight:normal;font-stretch:normal;font-size:16.9333px;line-height:1.25;font-family:'Avenir Next';-inkscape-font-specification:'Avenir Next Normal';font-variant-ligatures:normal;font-variant-caps:normal;font-variant-numeric:normal;font-variant-east-asian:normal;stroke-width:0.264583"
         d="m 49.990335,119.47588 q 0.338666,-0.69427 1.032932,-1.1176 0.711198,-0.44026 1.574797,-0.44026 0.321732,0 0.660398,0.0677 0.3556,0.0677 0.677332,0.27093 0.338666,0.18627 0.609599,0.508 0.287866,0.32173 0.491066,0.82973 0.406399,-0.8128 1.100664,-1.23613 0.711199,-0.44026 1.676397,-0.44026 1.507064,0 2.252129,0.89746 0.761998,0.89747 0.761998,2.37066 v 4.85986 h -1.151464 v -4.38572 q 0,-1.25307 -0.474132,-2.01507 -0.457199,-0.762 -1.574797,-0.762 -0.626532,0 -1.066798,0.254 -0.423333,0.254 -0.694265,0.67734 -0.254,0.4064 -0.372533,0.93133 -0.118533,0.52493 -0.118533,1.08373 v 4.21639 H 54.22366 v -4.62279 q 0,-0.57573 -0.08467,-1.04986 -0.08467,-0.47414 -0.304799,-0.79587 -0.2032,-0.33867 -0.575733,-0.508 -0.372532,-0.18627 -0.948264,-0.18627 -0.4064,0 -0.829732,0.18627 -0.406399,0.18627 -0.745065,0.57573 -0.321733,0.37254 -0.524933,0.9652 -0.203199,0.57573 -0.203199,1.3716 v 4.06399 H 48.8558 v -6.18065 q 0,-0.32174 -0.01693,-0.82974 -0.01693,-0.50799 -0.0508,-0.91439 h 1.100665 q 0.03387,0.32173 0.0508,0.71119 0.01693,0.38947 0.01693,0.64347 h 0.03387 z" />
      <path
         inkscape:connector-curvature="0"
         id="path931"
         style="font-style:normal;font-variant:normal;font-weight:normal;font-stretch:normal;font-size:16.9333px;line-height:1.25;font-family:'Avenir Next';-inkscape-font-specification:'Avenir Next Normal';font-variant-ligatures:normal;font-variant-caps:normal;font-variant-numeric:normal;font-variant-east-asian:normal;stroke-width:0.264583"
         d="m 72.833624,119.86535 q 0,-0.32174 -0.01693,-0.82974 -0.01693,-0.50799 -0.0508,-0.91439 h 1.100664 q 0.03387,0.32173 0.0508,0.71119 0.01693,0.38947 0.01693,0.64347 h 0.03387 q 0.338666,-0.69427 1.015998,-1.1176 0.677332,-0.44026 1.523997,-0.44026 0.220133,0 0.389466,0.0169 0.186266,0.0169 0.372532,0.0677 l -0.152399,1.08373 q -0.1016,-0.0339 -0.338666,-0.0677 -0.237067,-0.0339 -0.474133,-0.0339 -0.457199,0 -0.880531,0.16934 -0.423333,0.16933 -0.745066,0.54186 -0.304799,0.3556 -0.507999,0.93133 -0.186266,0.5588 -0.186266,1.35467 v 4.06399 h -1.151464 v -6.18065 z" />
      <path
         inkscape:connector-curvature="0"
         id="path933"
         style="font-style:normal;font-variant:normal;font-weight:normal;font-stretch:normal;font-size:16.9333px;line-height:1.25;font-family:'Avenir Next';-inkscape-font-specification:'Avenir Next Normal';font-variant-ligatures:normal;font-variant-caps:normal;font-variant-numeric:normal;font-variant-east-asian:normal;stroke-width:0.264583"
         d="m 82.293517,119.08641 h -2.235196 v 4.6228 q 0,0.44026 0.08467,0.72813 0.08467,0.28786 0.237066,0.4572 0.169333,0.1524 0.389466,0.22013 0.220133,0.0508 0.474132,0.0508 0.237066,0 0.491066,-0.0677 0.270933,-0.0677 0.507999,-0.18627 l 0.0508,0.99906 q -0.3048,0.11854 -0.643466,0.16934 -0.321732,0.0677 -0.711198,0.0677 -0.321733,0 -0.677332,-0.0847 -0.3556,-0.0847 -0.660399,-0.32173 -0.304799,-0.23707 -0.507999,-0.64346 -0.186266,-0.4064 -0.186266,-1.0668 v -4.94453 h -1.64253 v -0.96519 h 1.64253 v -2.2352 h 1.151464 v 2.2352 h 2.235196 z" />
      <path
         id="path955"
         style="font-style:normal;font-variant:normal;font-weight:normal;font-stretch:normal;font-size:16.9333px;line-height:1.25;font-family:'Avenir Next';-inkscape-font-specification:'Avenir Next Normal';font-variant-ligatures:normal;font-variant-caps:normal;font-variant-numeric:normal;font-variant-east-asian:normal;stroke-width:0.264583"
         d="m 65.955273,118.12128 c -0.620889,0 -1.185439,0.10694 -1.693436,0.32143 -0.49671,0.21448 -0.925499,0.50803 -1.286746,0.88056 -0.349953,0.37254 -0.626721,0.80709 -0.829921,1.3038 -0.178297,0.46148 -0.270023,0.95388 -0.28267,1.47381 0.0127,0.51974 0.104434,1.01146 0.28267,1.47278 0.2032,0.49671 0.479968,0.93126 0.829921,1.3038 0.361247,0.37253 0.790036,0.66608 1.286746,0.88056 0.507997,0.21449 1.072547,0.32195 1.693436,0.32195 0.575731,0 1.14028,-0.13577 1.693437,-0.4067 0.553154,-0.27093 0.987708,-0.6604 1.303795,-1.1684 h 0.03359 v 0.18655 1.18494 h 1.151869 v -7.55199 h -1.151869 v 1.18545 0.18604 h -0.03359 c -0.316087,-0.508 -0.750641,-0.89747 -1.303795,-1.1684 -0.553157,-0.27093 -1.117706,-0.40618 -1.693437,-0.40618 z m 0.118338,0.81287 c 0.440267,0 0.847032,0.0734 1.219565,0.22014 0.372531,0.14675 0.640874,0.38188 0.911807,0.65282 0.270933,0.27093 0.533072,0.56628 0.679826,0.93882 0.158043,0.38381 0.237196,0.80685 0.237196,1.26968 0,0.0286 -0.0034,0.0563 -0.0041,0.0848 7.93e-4,0.0284 0.0041,0.0561 0.0041,0.0847 0,0.46285 -0.07915,0.88639 -0.237196,1.27021 -0.146754,0.37253 -0.355902,0.69387 -0.626835,0.9648 -0.270933,0.27093 -0.592267,0.48008 -0.964798,0.62684 -0.372533,0.14676 -0.779298,0.22014 -1.219565,0.22014 -0.474133,0 -0.897157,-0.0791 -1.26969,-0.2372 -0.372531,-0.16933 -0.688618,-0.39526 -0.948262,-0.67748 -0.248356,-0.28222 -0.440208,-0.60931 -0.575675,-0.98185 -0.135467,-0.37253 -0.203605,-0.76777 -0.203605,-1.18546 0,-0.0286 0.003,-0.0563 0.0036,-0.0847 -5.29e-4,-0.0284 -0.0036,-0.0561 -0.0036,-0.0848 0,-0.41768 0.06814,-0.8124 0.203605,-1.18493 0.135467,-0.37254 0.327319,-0.70015 0.575675,-0.98237 0.259644,-0.28222 0.575731,-0.50815 0.948262,-0.67748 0.372533,-0.15805 0.795557,-0.23668 1.26969,-0.23668 z"
         inkscape:connector-curvature="0"
         sodipodi:nodetypes="scccccccsccccccccccccsscscscscscsccsscssccs" />
      <path
         id="path972"
         style="fill:#00ffff;stroke:none;stroke-width:0.3;stroke-linecap:round;stroke-miterlimit:4;stroke-dasharray:none"
         d="m 65.970822,118.90088 a 3.1842763,3.1839627 0 0 0 -0.46147,0.0388 3.1842763,3.1839627 0 0 0 -2.67839,2.89388 3.1842763,3.1839627 0 0 0 2.18953,3.27887 l 0.361735,-1.11156 a 2.0075581,2.0073607 0 0 1 -1.369425,-2.06344 2.0075581,2.0073607 0 0 1 1.68827,-1.82469 2.0075581,2.0073607 0 0 1 2.163175,1.20406 l 1.084172,-0.44804 a 3.1842763,3.1839627 0 0 0 -2.977597,-1.96784 z"
         inkscape:connector-curvature="0" />
      <circle
         style="fill:#000000;stroke:#000000;stroke-width:0;stroke-linecap:round;stroke-miterlimit:4;stroke-dasharray:none"
         id="path981"
         cx="65.978714"
         cy="122.25713"
         r="0.21196638" />
      <path
         inkscape:connector-curvature="0"
         d="m 62.830963,121.90718 c -0.11608,1.46768 0.789319,2.74991 2.18953,3.20525 l 0.361735,-1.11156 c -0.876955,-0.29078 -1.442197,-1.14248 -1.369425,-2.06344"
         style="fill:#ff0000;stroke:none;stroke-width:0.3;stroke-linecap:round;stroke-miterlimit:4;stroke-dasharray:none"
         id="path983"
         sodipodi:nodetypes="cccc" />
      <path
         sodipodi:nodetypes="cccc"
         id="path985"
         style="fill:#ffff00;stroke:none;stroke-width:0.3;stroke-linecap:round;stroke-miterlimit:4;stroke-dasharray:none"
         d="m 65.426879,118.94862 c -1.453005,0.23737 -2.515979,1.48992 -2.597201,2.97182 l 1.185994,0.0187 c 0.0732,-0.92101 0.765492,-1.6731 1.677226,-1.82211"
         inkscape:connector-curvature="0"
         inkscape:transform-center-x="-0.26684658"
         inkscape:transform-center-y="-1.4959316" />
      <path
         inkscape:connector-curvature="0"
         d="m 68.957159,120.85794 c -0.588672,-1.43786 -2.027178,-2.1504 -3.536766,-1.91543 l 0.276758,1.15568 c 0.914177,-0.13369 1.82177,0.36698 2.170058,1.22265"
         style="fill:#00ff00;stroke:none;stroke-width:0.3;stroke-linecap:round;stroke-miterlimit:4;stroke-dasharray:none"
         id="path987"
         sodipodi:nodetypes="cccc"
         inkscape:transform-center-x="0.62891765"
         inkscape:transform-center-y="-1.2001563" />
      <path
         style="fill:#000000;stroke:#000000;stroke-width:0.0650001;stroke-linecap:round;stroke-linejoin:round;stroke-miterlimit:4;stroke-dasharray:none;stroke-opacity:1"
         d="m 66.676538,120.93336 -0.964814,1.22585 c 0.05054,0.26265 0.165386,0.4247 0.489172,0.25986 z"
         id="path989"
         inkscape:connector-curvature="0"
         sodipodi:nodetypes="cccc"
         inkscape:transform-center-y="-0.51521511"
         inkscape:transform-center-x="-0.2035905" />
      <circle
         style="fill:#000000;stroke:#ffffff;stroke-width:0.0649997;stroke-linecap:round;stroke-linejoin:round;stroke-miterlimit:4;stroke-dasharray:none"
         id="path1459"
         cx="71.918861"
         cy="134.19417"
         r="1.2639545" />
      <path
         inkscape:transform-center-x="0.35893911"
         inkscape:transform-center-y="-0.089653425"
         sodipodi:nodetypes="cccc"
         inkscape:connector-curvature="0"
         id="path1472"
         d="m 71.052877,133.76893 0.865755,0.55326 c 0.168863,-0.0501 0.267708,-0.1358 0.138746,-0.3374 z"
         style="fill:#ff0000;stroke:#ff0000;stroke-width:0.0650001;stroke-linecap:round;stroke-linejoin:round;stroke-miterlimit:4;stroke-dasharray:none;stroke-opacity:1" />
      <circle
         style="fill:none;stroke:#ff0000;stroke-width:0.165;stroke-linecap:round;stroke-linejoin:round;stroke-miterlimit:4;stroke-dasharray:0.165, 1.98;stroke-dashoffset:1.65"
         id="path1474"
         transform="scale(1,-1)"
         cx="71.799706"
         cy="-134.42033"
         r="3.6927266" />
    </g>
    <path
       sodipodi:nodetypes="cccccccccc"
       inkscape:connector-curvature="0"
       id="path1503"
       style="font-style:normal;font-variant:normal;font-weight:normal;font-stretch:normal;font-size:16.9333px;line-height:1.25;font-family:'Avenir Next';-inkscape-font-specification:'Avenir Next Normal';font-variant-ligatures:normal;font-variant-caps:normal;font-variant-numeric:normal;font-variant-east-asian:normal;fill:#ffffff;stroke-width:0.264584"
       d="m 107.04485,144.94838 h -2.40366 v -21.49935 h -7.912012 v -2.13658 l 9.352382,1.09375 8.87531,-1.09375 v 2.13658 h -7.91202 z" />
    <path
       inkscape:connector-curvature="0"
       id="path1505"
       style="font-style:normal;font-variant:normal;font-weight:normal;font-stretch:normal;font-size:16.9333px;line-height:1.25;font-family:'Avenir Next';-inkscape-font-specification:'Avenir Next Normal';font-variant-ligatures:normal;font-variant-caps:normal;font-variant-numeric:normal;font-variant-east-asian:normal;fill:#ffffff;stroke-width:0.264584"
       d="m 126.72371,144.94838 q -0.0668,-0.63429 -0.10015,-1.40213 -0.0333,-0.76785 -0.0333,-1.26859 h -0.0668 q -0.66769,1.36874 -2.16996,2.23673 -1.50228,0.8346 -3.1715,0.8346 -2.97117,0 -4.47346,-1.76937 -1.4689,-1.76934 -1.4689,-4.67376 v -9.58123 h 2.27012 v 8.64648 q 0,1.23521 0.20031,2.23673 0.2003,1.00152 0.66769,1.73597 0.50076,0.70106 1.30196,1.10167 0.83462,0.40061 2.06982,0.40061 0.90137,0 1.73597,-0.36723 0.86799,-0.36721 1.53566,-1.10165 0.66769,-0.76785 1.0683,-1.9029 0.40061,-1.16845 0.40061,-2.73749 v -8.01219 h 2.27011 v 12.18519 q 0,0.63429 0.0333,1.63582 0.0333,1.00152 0.10015,1.80274 z" />
    <path
       inkscape:connector-curvature="0"
       id="path1507"
       style="font-style:normal;font-variant:normal;font-weight:normal;font-stretch:normal;font-size:16.9333px;line-height:1.25;font-family:'Avenir Next';-inkscape-font-specification:'Avenir Next Normal';font-variant-ligatures:normal;font-variant-caps:normal;font-variant-numeric:normal;font-variant-east-asian:normal;fill:#ffffff;stroke-width:0.264584"
       d="m 136.77493,129.32463 q 0.0668,0.63431 0.10016,1.40213 0.0333,0.76784 0.0333,1.2686 h 0.0668 q 0.66767,-1.36875 2.16995,-2.20335 1.50229,-0.86797 3.17148,-0.86797 2.9712,0 4.44009,1.76934 1.50228,1.76935 1.50228,4.67377 v 9.58123 h -2.27011 v -8.64648 q 0,-1.23521 -0.2003,-2.23673 -0.2003,-1.00153 -0.70107,-1.70258 -0.46738,-0.73446 -1.30198,-1.13507 -0.80122,-0.40061 -2.03642,-0.40061 -0.90138,0 -1.76937,0.36723 -0.8346,0.36724 -1.50227,1.13506 -0.66768,0.73444 -1.06829,1.90289 -0.40061,1.13506 -0.40061,2.70412 v 8.01217 h -2.27013 v -12.1852 q 0,-0.63429 -0.0333,-1.63581 -0.0333,-1.00153 -0.10015,-1.80274 z" />
    <path
       sodipodi:nodetypes="ccccc"
       inkscape:connector-curvature="0"
       id="path1509"
       style="font-style:normal;font-variant:normal;font-weight:normal;font-stretch:normal;font-size:16.9333px;line-height:1.25;font-family:'Avenir Next';-inkscape-font-specification:'Avenir Next Normal';font-variant-ligatures:normal;font-variant-caps:normal;font-variant-numeric:normal;font-variant-east-asian:normal;fill:#ffffff;stroke-width:0.264584"
       d="m 156.40737,144.94838 h -2.27013 v -15.62375 h 2.27013 z" />
    <path
       inkscape:connector-curvature="0"
       id="path1511"
       style="font-style:normal;font-variant:normal;font-weight:normal;font-stretch:normal;font-size:16.9333px;line-height:1.25;font-family:'Avenir Next';-inkscape-font-specification:'Avenir Next Normal';font-variant-ligatures:normal;font-variant-caps:normal;font-variant-numeric:normal;font-variant-east-asian:normal;fill:#ffffff;stroke-width:0.264584"
       d="m 164.48631,129.32463 q 0.0668,0.63431 0.10016,1.40213 0.0333,0.76784 0.0333,1.2686 h 0.0668 q 0.66767,-1.36875 2.16995,-2.20335 1.50229,-0.86797 3.17148,-0.86797 2.9712,0 4.44009,1.76934 1.50228,1.76935 1.50228,4.67377 v 9.58123 h -2.27011 v -8.64648 q 0,-1.23521 -0.2003,-2.23673 -0.2003,-1.00153 -0.70107,-1.70258 -0.46738,-0.73446 -1.30198,-1.13507 -0.80122,-0.40061 -2.03642,-0.40061 -0.90138,0 -1.76937,0.36723 -0.8346,0.36724 -1.50227,1.13506 -0.66768,0.73444 -1.06829,1.90289 -0.40061,1.13506 -0.40061,2.70412 v 8.01217 h -2.27011 v -12.1852 q 0,-0.63429 -0.0333,-1.63581 -0.0333,-1.00153 -0.10015,-1.80274 z" />
    <path
       inkscape:connector-curvature="0"
       id="path1513"
       style="font-style:normal;font-variant:normal;font-weight:normal;font-stretch:normal;font-size:16.9333px;line-height:1.25;font-family:'Avenir Next';-inkscape-font-specification:'Avenir Next Normal';font-variant-ligatures:normal;font-variant-caps:normal;font-variant-numeric:normal;font-variant-east-asian:normal;fill:#ffffff;stroke-width:0.264584"
       d="m 182.64986,148.08648 q 0.93475,1.20183 2.53719,2.03643 1.63581,0.83459 3.43855,0.83459 1.6692,0 2.83765,-0.50076 1.16843,-0.46736 1.8695,-1.30198 0.73446,-0.8346 1.0683,-1.96965 0.33383,-1.10168 0.33383,-2.37026 v -2.9378 h -0.0668 q -0.90137,1.46889 -2.57057,2.27011 -1.63581,0.80122 -3.3384,0.80122 -1.83613,0 -3.33841,-0.60091 -1.46891,-0.60092 -2.53719,-1.63582 -1.0349,-1.0683 -1.63581,-2.53719 -0.56754,-1.46891 -0.56754,-3.1715 0,-1.66919 0.56754,-3.1381 0.60091,-1.46889 1.63581,-2.57056 1.06828,-1.10168 2.53719,-1.73597 1.50228,-0.63429 3.33841,-0.63429 1.70259,0 3.3384,0.8012 1.63582,0.80121 2.57057,2.3035 h 0.0668 v -2.70411 h 2.27013 v 15.49022 q 0,1.26858 -0.36723,2.70409 -0.33384,1.43554 -1.30198,2.63734 -0.93475,1.20183 -2.57057,2.00305 -1.63582,0.80122 -4.23978,0.80122 -2.16997,0 -4.13962,-0.83459 -1.96967,-0.8346 -3.37179,-2.30351 z m 0.43399,-11.15027 q 0,1.2352 0.4006,2.33688 0.40061,1.10168 1.13506,1.93627 0.76784,0.8346 1.86952,1.33536 1.10167,0.46739 2.50379,0.46739 1.30198,0 2.40365,-0.43401 1.10168,-0.43399 1.9029,-1.23521 0.80122,-0.80122 1.23521,-1.90289 0.46738,-1.13506 0.46738,-2.50379 0,-1.23521 -0.46738,-2.33688 -0.43399,-1.10168 -1.23521,-1.9363 -0.80122,-0.83459 -1.9029,-1.33536 -1.10167,-0.50076 -2.40365,-0.50076 -1.40212,0 -2.50379,0.50076 -1.10168,0.50077 -1.86952,1.33536 -0.73445,0.83462 -1.13506,1.9363 -0.4006,1.10167 -0.4006,2.33688 z" />
    <path
       d="m 116.26097,118.84905 -10.24305,3.27341 -9.470787,-3.18682 v 6.56313 c 6.149197,-2.47956 12.771477,-2.17985 19.713837,0 z"
       style="fill:#ffffff;stroke:none;stroke-width:0.264999"
       id="path1515"
       inkscape:connector-curvature="0" />
    <path
       inkscape:connector-curvature="0"
       id="path1519"
       d="m 119.90728,117.19345 v 3.51052"
       style="fill:#ffffff;stroke:#ffffff;stroke-width:0.264584px;stroke-linecap:butt;stroke-linejoin:miter;stroke-opacity:1" />
    <path
       inkscape:connector-curvature="0"
       id="path1525"
       style="font-style:normal;font-variant:normal;font-weight:normal;font-stretch:normal;font-size:16.9333px;line-height:1.25;font-family:'Avenir Next';-inkscape-font-specification:'Avenir Next Normal';font-variant-ligatures:normal;font-variant-caps:normal;font-variant-numeric:normal;font-variant-east-asian:normal;fill:#ffffff;stroke-width:0.264584"
       d="m 136.20651,100.882 q -0.76782,-1.06828 -1.96965,-1.702572 -1.20183,-0.667689 -2.90442,-0.667689 -0.86797,0 -1.76935,0.267079 -0.90137,0.26706 -1.63581,0.834597 -0.73447,0.534135 -1.20183,1.368735 -0.43401,0.83459 -0.43401,1.96965 0,1.13507 0.43401,1.86952 0.43399,0.73444 1.13505,1.2686 0.73445,0.50074 1.63582,0.8346 0.93477,0.33383 1.93627,0.66767 1.23523,0.40061 2.47043,0.86799 1.26859,0.46738 2.27011,1.23521 1.00153,0.73444 1.63582,1.90289 0.63431,1.13506 0.63431,2.90442 0,1.76935 -0.70107,3.07133 -0.66769,1.2686 -1.76936,2.1032 -1.06828,0.8346 -2.47042,1.23521 -1.36875,0.4006 -2.77088,0.4006 -1.06828,0 -2.13658,-0.23368 -1.06828,-0.2003 -2.03643,-0.63431 -0.96812,-0.43399 -1.80274,-1.10166 -0.8346,-0.66769 -1.46889,-1.53568 l 2.0698,-1.53566 q 0.76784,1.2686 2.13658,2.13658 1.40213,0.83461 3.27165,0.83461 0.90137,0 1.83612,-0.26708 0.93475,-0.30046 1.6692,-0.86799 0.76784,-0.60092 1.23522,-1.43551 0.50076,-0.86798 0.50076,-2.00305 0,-1.23521 -0.50076,-2.03643 -0.46738,-0.83459 -1.2686,-1.36873 -0.80122,-0.56754 -1.83612,-0.93477 -1.0349,-0.36721 -2.16998,-0.73445 -1.16843,-0.36721 -2.30348,-0.83459 -1.13506,-0.46739 -2.03643,-1.20183 -0.90137,-0.76784 -1.46891,-1.8695 -0.53414,-1.10168 -0.53414,-2.70411 0,-1.7026 0.66767,-2.9378 0.70107,-1.235204 1.80275,-2.036423 1.10167,-0.801219 2.43703,-1.168451 1.33538,-0.367213 2.63734,-0.367213 2.40366,0 4.10625,0.867975 1.70259,0.834616 2.57057,2.003048 z" />
    <path
       inkscape:connector-curvature="0"
       id="path1527"
       style="font-style:normal;font-variant:normal;font-weight:normal;font-stretch:normal;font-size:16.9333px;line-height:1.25;font-family:'Avenir Next';-inkscape-font-specification:'Avenir Next Normal';font-variant-ligatures:normal;font-variant-caps:normal;font-variant-numeric:normal;font-variant-east-asian:normal;fill:#ffffff;stroke-width:0.264584"
       d="m 145.70271,107.75911 q 0.66769,-1.36875 2.03645,-2.20335 1.40213,-0.86797 3.1047,-0.86797 0.63431,0 1.30198,0.13347 0.70107,0.13347 1.33536,0.53414 0.66769,0.36723 1.20183,1.00152 0.56754,0.63429 0.96815,1.63582 0.80122,-1.60244 2.16995,-2.43704 1.40214,-0.86797 3.30503,-0.86797 2.97118,0 4.44008,1.76934 1.50229,1.76937 1.50229,4.67377 v 9.58123 h -2.27013 v -8.64646 q 0,-2.47044 -0.93475,-3.97272 -0.90137,-1.50229 -3.10472,-1.50229 -1.23521,0 -2.10318,0.50076 -0.83462,0.50077 -1.36876,1.33538 -0.50076,0.80122 -0.73444,1.83612 -0.23368,1.03491 -0.23368,2.13658 v 8.31263 h -2.27013 v -9.11385 q 0,-1.13505 -0.16699,-2.0698 -0.16698,-0.93477 -0.60091,-1.56906 -0.40061,-0.66769 -1.13506,-1.00153 -0.73444,-0.36723 -1.86951,-0.36723 -0.80122,0 -1.63582,0.36723 -0.80122,0.36724 -1.46889,1.13506 -0.63431,0.73446 -1.03492,1.90289 -0.40061,1.13506 -0.40061,2.70412 v 8.01217 h -2.27011 V 108.5269 q 0,-0.63432 -0.0333,-1.63584 -0.0333,-1.0015 -0.10015,-1.80272 h 2.16998 q 0.0668,0.63429 0.10015,1.40211 0.0333,0.76784 0.0333,1.2686 h 0.0668 z" />
    <path
       inkscape:connector-curvature="0"
       id="path1529"
       style="font-style:normal;font-variant:normal;font-weight:normal;font-stretch:normal;font-size:16.9333px;line-height:1.25;font-family:'Avenir Next';-inkscape-font-specification:'Avenir Next Normal';font-variant-ligatures:normal;font-variant-caps:normal;font-variant-numeric:normal;font-variant-east-asian:normal;fill:#ffffff;stroke-width:0.264584"
       d="m 190.73835,108.52695 q 0,-0.63431 -0.0333,-1.63583 -0.0333,-1.00151 -0.10015,-1.80272 h 2.16997 q 0.0668,0.63429 0.10015,1.40211 0.0333,0.76784 0.0333,1.2686 h 0.0668 q 0.66767,-1.36875 2.00304,-2.20335 1.33536,-0.86797 3.00456,-0.86797 0.434,0 0.76784,0.0333 0.36721,0.0333 0.73444,0.13348 l -0.30045,2.13657 q -0.20031,-0.0668 -0.66767,-0.13347 -0.46739,-0.0668 -0.93477,-0.0668 -0.90137,0 -1.73597,0.33385 -0.8346,0.33384 -1.46889,1.06828 -0.60091,0.70107 -1.00152,1.83612 -0.36724,1.10168 -0.36724,2.67074 v 8.01217 h -2.2701 v -12.18517 z" />
    <path
       inkscape:connector-curvature="0"
       id="path1531"
       style="font-style:normal;font-variant:normal;font-weight:normal;font-stretch:normal;font-size:16.9333px;line-height:1.25;font-family:'Avenir Next';-inkscape-font-specification:'Avenir Next Normal';font-variant-ligatures:normal;font-variant-caps:normal;font-variant-numeric:normal;font-variant-east-asian:normal;fill:#ffffff;stroke-width:0.264584"
       d="m 209.38858,106.99127 h -4.40671 v 9.11387 q 0,0.86797 0.16699,1.43551 0.16698,0.56752 0.46738,0.90137 0.33384,0.30046 0.76782,0.43399 0.43401,0.10015 0.93475,0.10015 0.46739,0 0.96815,-0.13347 0.53414,-0.13347 1.00152,-0.36723 l 0.10016,1.96965 q -0.60092,0.2337 -1.26861,0.33385 -0.63429,0.13348 -1.40211,0.13348 -0.63431,0 -1.33538,-0.16699 -0.70107,-0.16699 -1.30198,-0.63429 -0.6009,-0.46739 -1.00151,-1.26859 -0.36723,-0.80122 -0.36723,-2.1032 v -9.74816 h -3.23825 v -1.90287 h 3.23825 v -4.40671 h 2.27011 v 4.40671 h 4.40671 z" />
    <path
       id="path1533"
       style="font-style:normal;font-variant:normal;font-weight:normal;font-stretch:normal;font-size:16.9333px;line-height:1.25;font-family:'Avenir Next';-inkscape-font-specification:'Avenir Next Normal';font-variant-ligatures:normal;font-variant-caps:normal;font-variant-numeric:normal;font-variant-east-asian:normal;fill:#ffffff;stroke-width:0.264584"
       d="m 177.17765,105.08851 c -1.22408,0 -2.3371,0.21084 -3.3386,0.6337 -0.97927,0.42285 -1.82463,1.00159 -2.53683,1.73603 -0.68993,0.73447 -1.23558,1.59118 -1.63619,2.57045 -0.35152,0.90981 -0.53235,1.88058 -0.55729,2.90562 0.025,1.02467 0.20589,1.9941 0.55729,2.90359 0.40061,0.97927 0.94626,1.83599 1.63619,2.57045 0.7122,0.73444 1.55756,1.31318 2.53683,1.73603 1.0015,0.42286 2.11452,0.63472 3.3386,0.63472 1.13506,0 2.24807,-0.26767 3.33863,-0.80181 1.09053,-0.53414 1.94727,-1.30198 2.57042,-2.3035 h 0.0662 v 0.36778 2.33611 h 2.27091 v -14.88877 h -2.27091 v 2.33712 0.36677 h -0.0662 c -0.62315,-1.00152 -1.47989,-1.76936 -2.57042,-2.3035 -1.09056,-0.53414 -2.20357,-0.80079 -3.33863,-0.80079 z m 0.23331,1.60258 c 0.868,0 1.66992,0.14471 2.40439,0.43401 0.73444,0.28932 1.26348,0.75288 1.79762,1.28703 0.53415,0.53414 1.05094,1.11643 1.34028,1.85089 0.31158,0.75668 0.46764,1.59071 0.46764,2.50318 0,0.0564 -0.006,0.111 -0.008,0.16718 0.002,0.056 0.008,0.11061 0.008,0.16699 0,0.91251 -0.15614,1.74752 -0.46764,2.50422 -0.28934,0.73445 -0.70166,1.36797 -1.23581,1.90211 -0.53414,0.53414 -1.16765,0.94648 -1.90209,1.23582 -0.73447,0.28934 -1.53639,0.43401 -2.40439,0.43401 -0.93475,0 -1.76875,-0.15595 -2.5032,-0.46764 -0.73444,-0.33384 -1.35761,-0.77926 -1.8695,-1.33566 -0.48964,-0.5564 -0.86787,-1.20126 -1.13495,-1.93572 -0.26706,-0.73444 -0.4014,-1.51366 -0.4014,-2.33714 0,-0.0564 0.006,-0.11099 0.008,-0.16699 -0.001,-0.056 -0.008,-0.1106 -0.008,-0.16718 0,-0.82346 0.13426,-1.60165 0.4014,-2.33609 0.26708,-0.73447 0.64531,-1.38035 1.13495,-1.93675 0.51189,-0.5564 1.13506,-1.00182 1.8695,-1.33565 0.73445,-0.3116 1.56845,-0.46662 2.5032,-0.46662 z"
       inkscape:connector-curvature="0"
       sodipodi:nodetypes="scccccccsccccccccccccsscscscscscsccsscssccs" />
    <path
       id="path1535"
       style="fill:#00ffff;stroke:none;stroke-width:0.3;stroke-linecap:round;stroke-miterlimit:4;stroke-dasharray:none"
       d="m 177.20831,106.6255 a 6.2778131,6.2771949 0 0 0 -0.90979,0.0765 6.2778131,6.2771949 0 0 0 -5.28046,5.7053 6.2778131,6.2771949 0 0 0 4.31667,6.4643 l 0.71317,-2.19144 a 3.9579086,3.9575194 0 0 1 -2.69983,-4.06808 3.9579086,3.9575194 0 0 1 3.32843,-3.59738 3.9579086,3.9575194 0 0 1 4.26471,2.3738 l 2.13745,-0.88331 a 6.2778131,6.2771949 0 0 0 -5.87035,-3.8796 z"
       inkscape:connector-curvature="0" />
    <circle
       style="fill:#000000;stroke:#000000;stroke-width:0;stroke-linecap:round;stroke-miterlimit:4;stroke-dasharray:none"
       id="circle1537"
       cx="177.22388"
       cy="113.24236"
       r="0.41789255" />
    <path
       inkscape:connector-curvature="0"
       d="m 171.01806,112.55243 c -0.22885,2.89354 1.55615,5.42146 4.31667,6.31916 l 0.71317,-2.19144 c -1.72893,-0.57328 -2.8433,-2.25241 -2.69983,-4.06808"
       style="fill:#ff0000;stroke:none;stroke-width:0.3;stroke-linecap:round;stroke-miterlimit:4;stroke-dasharray:none"
       id="path1539"
       sodipodi:nodetypes="cccc" />
    <path
       sodipodi:nodetypes="cccc"
       id="path1541"
       style="fill:#ffff00;stroke:none;stroke-width:0.3;stroke-linecap:round;stroke-miterlimit:4;stroke-dasharray:none"
       d="m 176.13593,106.71962 c -2.86461,0.46797 -4.96026,2.93738 -5.12039,5.85895 l 2.33818,0.0369 c 0.14432,-1.81577 1.50917,-3.29852 3.30667,-3.5923"
       inkscape:connector-curvature="0"
       inkscape:transform-center-x="-0.26684658"
       inkscape:transform-center-y="-1.4959316" />
    <path
       inkscape:connector-curvature="0"
       d="m 183.09589,110.48385 c -1.16056,-2.83475 -3.99659,-4.23952 -6.97275,-3.77628 l 0.54563,2.27843 c 1.80231,-0.26357 3.59163,0.7235 4.27828,2.41046"
       style="fill:#00ff00;stroke:none;stroke-width:0.3;stroke-linecap:round;stroke-miterlimit:4;stroke-dasharray:none"
       id="path1543"
       sodipodi:nodetypes="cccc"
       inkscape:transform-center-x="0.62891765"
       inkscape:transform-center-y="-1.2001563" />
    <path
       style="fill:#ffffff;stroke:#000000;stroke-width:0.0650001;stroke-linecap:round;stroke-linejoin:round;stroke-miterlimit:4;stroke-dasharray:none;stroke-opacity:1"
       d="m 178.59964,110.63254 -1.90215,2.41677 c 0.0996,0.51781 0.32607,0.8373 0.96442,0.51231 z"
       id="path1545"
       inkscape:connector-curvature="0"
       sodipodi:nodetypes="cccc"
       inkscape:transform-center-y="-0.51521511"
       inkscape:transform-center-x="-0.2035905" />
    <circle
       style="fill:#ffffff;stroke:#ffffff;stroke-width:0.0649997;stroke-linecap:round;stroke-linejoin:round;stroke-miterlimit:4;stroke-dasharray:none"
       id="circle1547"
       cx="188.93491"
       cy="136.77626"
       r="2.4918914" />
    <path
       inkscape:transform-center-x="0.35893911"
       inkscape:transform-center-y="-0.089653425"
       sodipodi:nodetypes="cccc"
       inkscape:connector-curvature="0"
       id="path1549"
       d="m 187.22761,135.93792 1.70683,1.09075 c 0.33291,-0.0988 0.52779,-0.26773 0.27355,-0.66518 z"
       style="fill:#ff0000;stroke:#ff0000;stroke-width:0.0650001;stroke-linecap:round;stroke-linejoin:round;stroke-miterlimit:4;stroke-dasharray:none;stroke-opacity:1" />
    <circle
       style="fill:none;stroke:#ff0000;stroke-width:0.565;stroke-linecap:round;stroke-linejoin:round;stroke-miterlimit:4;stroke-dasharray:0.565,6.78;stroke-dashoffset:5.65"
       id="circle1551"
       transform="scale(1,-1)"
       cx="188.7"
       cy="-137.22214"
       r="7.2802248" />
    <path
       id="path1595"
       style="fill:#ffffff;stroke:none;stroke-width:0.265;stroke-miterlimit:4;stroke-dasharray:none"
       d="m 106.71449,111.14328 14.72609,5.00691 -15.42274,4.92884 -14.648669,-4.92884 z"
       inkscape:connector-curvature="0"
       sodipodi:nodetypes="ccccc" />
  </g>
</svg>
